#!OML:ASF H:\Terrain\Patient Classification 1\Takeo\Monday\TakeoMonday.ASF
:FULLY-SPECIFIED
:DEGREES
563
root 9.43621 17.2418 -3.50874 -10.6058 1.2689 2.36206
lowerback 4.87998 3.69306 4.7667
upperback 3.41202 5.09677 1.31622
thorax 1.08602 2.62298 -1.48524
lowerneck -12.3541 3.65404 -4.28071
upperneck -5.9257 5.41612 0.655898
head 0.0556767 2.80534 1.10822
rclavicle -3.79182e-014 -3.33958e-014
rhumerus 67.423 35.6254 -62.5383
rradius 53.4381
rwrist -16.7402
rhand -47.7901 45.119
rfingers 7.12502
rthumb -20.4667 16.1777
lclavicle -3.79182e-014 -3.33958e-014
lhumerus 57.6839 -7.90116 56.091
lradius 90.8974
lwrist 33.684
lhand -48.596 26.4658
lfingers 7.12502
lthumb -21.241 55.322
rfemur 14.0403 -9.22678 19.7062
rtibia 22.1796
rfoot -27.705 -24.7665
rtoes -0.574951
lfemur -15.2622 -4.44525 -23.3704
ltibia 27.3298
lfoot 0.670687 6.47727
ltoes -1.19835
564
root 9.4302 17.2231 -3.5285 -10.8846 1.40236 2.52443
lowerback 5.01959 3.62352 4.43954
upperback 3.57064 4.99473 1.45364
thorax 1.12417 2.56799 -1.16593
lowerneck -12.0833 3.82876 -4.74061
upperneck -6.57764 5.68861 0.599272
head -0.213673 2.95992 1.15635
rclavicle -2.56929e-014 -9.54166e-015
rhumerus 68.2784 35.9315 -61.2951
rradius 54.0313
rwrist -17.657
rhand -48.085 45.6381
rfingers 7.12502
rthumb -20.7501 16.7275
lclavicle -2.56929e-014 -9.54166e-015
lhumerus 57.5615 -7.30258 56.2465
lradius 91.2341
lwrist 33.5122
lhand -48.3901 27.8642
lfingers 7.12502
lthumb -21.0432 56.7425
rfemur 14.1292 -9.22502 19.5309
rtibia 22.5293
rfoot -27.8592 -24.7917
rtoes -0.571624
lfemur -15.1101 -4.33134 -23.5814
ltibia 27.5293
lfoot 0.525656 6.13266
ltoes -2.42178
565
root 9.4261 17.2148 -3.55027 -11.0352 1.43557 2.33747
lowerback 5.03923 3.68255 4.61058
upperback 3.79031 5.07327 1.47948
thorax 1.35823 2.61807 -1.22612
lowerneck -12.058 3.93499 -4.5623
upperneck -7.3609 5.79917 0.282701
head -0.45523 3.0225 1.01388
rclavicle -7.10655e-015 -3.97569e-015
rhumerus 68.5425 35.8059 -61.2533
rradius 54.4805
rwrist -17.9584
rhand -47.9607 44.902
rfingers 7.12502
rthumb -20.6306 15.9784
lclavicle -7.10655e-015 -3.97569e-015
lhumerus 57.9331 -6.91247 55.9124
lradius 91.6193
lwrist 33.3567
lhand -48.2518 27.8473
lfingers 7.12502
lthumb -20.9104 56.7403
rfemur 14.0407 -9.14289 19.7891
rtibia 22.879
rfoot -28.326 -24.6804
rtoes -0.146839
lfemur -15.2245 -4.39346 -23.3558
ltibia 27.7877
lfoot 0.591491 6.305
ltoes -1.50183
566
root 9.42876 17.2074 -3.56831 -11.1723 1.31651 1.81956
lowerback 5.15769 3.71054 5.21581
upperback 3.81214 5.13845 1.59892
thorax 1.36433 2.66158 -1.44468
lowerneck -11.3515 4.12418 -4.29555
upperneck -8.45632 5.97072 -0.106151
head -0.898069 3.11815 0.814196
rclavicle -4.14218e-014 7.95139e-016
rhumerus 68.4174 36.027 -61.7257
rradius 54.7504
rwrist -17.8004
rhand -46.8336 44.6729
rfingers 7.12502
rthumb -19.5473 15.6356
lclavicle -4.14218e-014 7.95139e-016
lhumerus 57.9975 -6.57691 55.6414
lradius 91.6917
lwrist 33.2642
lhand -48.3194 26.7127
lfingers 7.12502
lthumb -20.9753 55.5986
rfemur 13.9014 -9.2829 20.2924
rtibia 23.2691
rfoot -28.4697 -24.5569
rtoes -0.588354
lfemur -15.3468 -4.39962 -22.7659
ltibia 28.0564
lfoot 0.684457 6.46947
ltoes -0.582795
567
root 9.42892 17.1939 -3.58733 -11.3967 1.28864 1.84339
lowerback 5.41531 3.68118 5.15068
upperback 3.82008 5.11316 1.72278
thorax 1.21019 2.64299 -1.30107
lowerneck -10.5665 4.30759 -4.64051
upperneck -9.4842 6.20074 -0.209356
head -1.36423 3.26085 0.808266
rclavicle 4.76089e-014 1.74931e-014
rhumerus 68.74 36.5527 -61.1725
rradius 55.1065
rwrist -17.8188
rhand -46.5568 45.5547
rfingers 7.12502
rthumb -19.2811 16.4906
lclavicle 4.76089e-014 1.74931e-014
lhumerus 57.6334 -6.16623 55.6685
lradius 91.8864
lwrist 33.4361
lhand -48.5633 26.5085
lfingers 7.12502
lthumb -21.2096 55.3682
rfemur 13.9503 -9.40555 20.1933
rtibia 23.5099
rfoot -28.3359 -24.5476
rtoes -0.539282
lfemur -15.3773 -4.37314 -22.8096
ltibia 28.4315
lfoot 0.707892 6.40485
ltoes -1.28369
568
root 9.42522 17.179 -3.60869 -11.5908 1.38832 2.02879
lowerback 5.60822 3.75992 4.98955
upperback 3.94127 5.21991 1.64402
thorax 1.22743 2.69703 -1.30517
lowerneck -10.3995 4.31162 -4.74193
upperneck -10.0148 6.20172 -0.290876
head -1.56291 3.27554 0.78779
rclavicle -2.38542e-014 0
rhumerus 68.8643 36.4995 -60.9358
rradius 55.4816
rwrist -17.956
rhand -46.6216 44.8758
rfingers 7.12502
rthumb -19.3434 15.8178
lclavicle -2.38542e-014 0
lhumerus 57.5535 -6.10167 55.3898
lradius 92.2592
lwrist 33.4676
lhand -49.3005 27.2267
lfingers 7.12502
lthumb -21.9176 56.0052
rfemur 13.996 -9.42497 19.9845
rtibia 23.6678
rfoot -28.3417 -24.6082
rtoes 0.312496
lfemur -15.4984 -4.50947 -23.0309
ltibia 28.8816
lfoot 0.684051 6.39309
ltoes -1.09045
569
root 9.42549 17.1659 -3.62323 -11.8069 1.30055 1.51648
lowerback 5.80694 3.86659 5.67737
upperback 4.02016 5.40137 1.66018
thorax 1.2765 2.80395 -1.68092
lowerneck -10.4832 4.3295 -4.68036
upperneck -10.0261 6.22882 -0.245147
head -1.55316 3.28782 0.794201
rclavicle -2.05742e-014 -1.43125e-014
rhumerus 68.1866 36.3305 -62.1507
rradius 55.4088
rwrist -17.434
rhand -46.0573 44.2936
rfingers 7.12502
rthumb -18.8008 15.1822
lclavicle -2.05742e-014 -1.43125e-014
lhumerus 57.6134 -6.20095 54.9683
lradius 92.5252
lwrist 33.3349
lhand -49.8367 28.7021
lfingers 7.12502
lthumb -22.4323 57.4195
rfemur 14.0034 -9.48462 20.525
rtibia 23.9386
rfoot -28.4947 -24.6843
rtoes 0.522984
lfemur -15.5426 -4.56185 -22.4613
ltibia 29.262
lfoot 0.518132 6.32882
ltoes -0.256205
570
root 9.42432 17.1543 -3.63498 -12.0284 1.23173 1.02368
lowerback 5.97854 3.90234 6.26483
upperback 4.30552 5.47484 1.69365
thorax 1.53981 2.8654 -1.96731
lowerneck -11.4561 4.37571 -4.84806
upperneck -9.84479 6.37818 0.105976
head -1.36185 3.36475 0.962509
rclavicle -4.48259e-014 -1.11319e-014
rhumerus 67.9836 36.1893 -63.1362
rradius 55.1892
rwrist -16.5147
rhand -45.5086 44.7793
rfingers 7.12502
rthumb -18.273 15.6176
lclavicle -4.48259e-014 -1.11319e-014
lhumerus 58.0327 -5.90614 54.7933
lradius 92.6433
lwrist 33.4584
lhand -49.0656 28.5107
lfingers 7.12502
lthumb -21.6921 57.3154
rfemur 14.0081 -9.598 21.0274
rtibia 24.3197
rfoot -28.6644 -24.7091
rtoes 0.189666
lfemur -15.4847 -4.5909 -21.9239
ltibia 29.524
lfoot 0.473503 6.19015
ltoes -0.725418
571
root 9.41998 17.1416 -3.64816 -12.18 1.33571 1.1592
lowerback 6.20955 3.86483 6.06852
upperback 4.08368 5.44392 1.74019
thorax 1.1537 2.83042 -1.84251
lowerneck -10.0629 4.49957 -5.3794
upperneck -10.5896 6.53108 0.407861
head -1.86673 3.46753 1.10372
rclavicle -5.27028e-014 -3.81667e-014
rhumerus 67.5311 36.8155 -63.143
rradius 55.4649
rwrist -16.9985
rhand -45.7466 45.0147
rfingers 7.12502
rthumb -18.5019 15.8746
lclavicle -5.27028e-014 -3.81667e-014
lhumerus 57.3745 -5.86903 54.9353
lradius 92.5461
lwrist 33.6766
lhand -49.5201 26.173
lfingers 7.12502
lthumb -22.1285 54.9267
rfemur 13.9746 -9.72256 20.8342
rtibia 24.7037
rfoot -28.8175 -24.5996
rtoes 0.0252803
lfemur -15.4403 -4.74449 -22.0947
ltibia 29.7177
lfoot 0.673937 6.08498
ltoes -2.12225
572
root 9.41828 17.1301 -3.65741 -12.2706 1.45803 1.73434
lowerback 6.27198 3.88335 5.37476
upperback 4.17416 5.43656 1.71588
thorax 1.14554 2.8151 -1.48924
lowerneck -10.0431 4.59267 -6.00914
upperneck -10.7921 6.72539 0.705744
head -1.98251 3.58812 1.30455
rclavicle -9.93923e-017 1.66979e-014
rhumerus 67.9232 37.2281 -62.3252
rradius 55.8822
rwrist -18.3294
rhand -46.1759 45.3308
rfingers 7.12502
rthumb -18.9149 16.2305
lclavicle -9.93923e-017 1.66979e-014
lhumerus 57.1151 -5.55193 55.0358
lradius 92.4503
lwrist 33.7374
lhand -50.8951 24.4471
lfingers 7.12502
lthumb -23.448 53.0383
rfemur 13.8757 -9.90725 20.0873
rtibia 25.1543
rfoot -29.0246 -24.3547
rtoes -0.0156953
lfemur -15.3909 -4.87241 -22.752
ltibia 29.7921
lfoot 0.860532 6.00035
ltoes -3.08971
573
root 9.41751 17.1205 -3.66398 -12.3541 1.54563 2.06338
lowerback 6.28864 4.00141 5.03569
upperback 4.31893 5.57401 1.53575
thorax 1.27954 2.88531 -1.48675
lowerneck -10.3301 4.64688 -5.79876
upperneck -10.8185 6.80677 0.812139
head -1.94259 3.62219 1.31085
rclavicle 5.65294e-014 -1.43125e-014
rhumerus 67.8865 37.2444 -62.3393
rradius 56.1688
rwrist -19.0995
rhand -46.4854 44.9849
rfingers 7.12502
rthumb -19.2125 15.9139
lclavicle 5.65294e-014 -1.43125e-014
lhumerus 57.226 -5.66093 54.9209
lradius 92.4438
lwrist 33.9238
lhand -50.9971 23.2495
lfingers 7.12502
lthumb -23.5458 51.8283
rfemur 13.7389 -10.074 19.6179
rtibia 25.657
rfoot -29.3339 -24.118
rtoes 0.3614
lfemur -15.3296 -4.98839 -23.1315
ltibia 29.75
lfoot 1.0601 5.92714
ltoes -2.58225
574
root 9.41426 17.1129 -3.67167 -12.3252 1.51542 1.92595
lowerback 6.30036 4.10699 5.17223
upperback 4.13069 5.72916 1.44209
thorax 1.11147 2.96006 -1.67339
lowerneck -9.14743 4.75763 -5.23715
upperneck -11.4804 6.82998 0.588802
head -2.32699 3.62277 1.10331
rclavicle -9.14906e-014 -3.18055e-015
rhumerus 67.0663 37.5386 -63.0944
rradius 56.3892
rwrist -19.3969
rhand -47.5477 43.2433
rfingers 7.12502
rthumb -20.2338 14.2771
lclavicle -9.14906e-014 -3.18055e-015
lhumerus 56.8818 -6.04097 54.6597
lradius 92.4505
lwrist 34.3906
lhand -50.8622 23.6445
lfingers 7.12502
lthumb -23.4164 52.2398
rfemur 13.484 -10.075 19.7935
rtibia 26.0389
rfoot -29.4952 -24.0244
rtoes 0.632945
lfemur -15.3978 -5.13602 -22.9553
ltibia 29.7261
lfoot 1.36666 5.9614
ltoes -1.24446
575
root 9.41291 17.1121 -3.67668 -12.1874 1.50076 1.83542
lowerback 6.2016 4.14748 5.19006
upperback 4.02184 5.78152 1.45715
thorax 1.05693 2.98305 -1.66721
lowerneck -8.33448 4.80734 -5.08809
upperneck -12.0926 6.82682 0.350702
head -2.65494 3.62683 0.971594
rclavicle 4.42793e-014 3.65764e-014
rhumerus 66.5494 37.9747 -63.6208
rradius 56.4361
rwrist -19.4269
rhand -47.9729 41.8009
rfingers 7.12502
rthumb -20.6423 12.8786
lclavicle 4.42793e-014 3.65764e-014
lhumerus 56.4115 -6.08971 54.4407
lradius 92.6779
lwrist 34.6989
lhand -50.2554 26.4959
lfingers 7.12502
lthumb -22.8342 55.1642
rfemur 13.234 -10.1564 19.8937
rtibia 26.1856
rfoot -29.4383 -24.0056
rtoes -0.26012
lfemur -15.6199 -5.38655 -22.8178
ltibia 29.8292
lfoot 1.54312 6.09184
ltoes 0.301604
576
root 9.41575 17.1107 -3.67579 -12.1315 1.63366 1.84636
lowerback 6.02467 4.13028 5.08783
upperback 4.272 5.73347 1.47932
thorax 1.39847 2.96871 -1.55852
lowerneck -9.15487 4.76347 -5.31412
upperneck -11.885 6.83904 0.475126
head -2.46091 3.63992 1.0743
rclavicle -2.37051e-014 -8.74653e-015
rhumerus 66.9084 38.1374 -63.3279
rradius 56.379
rwrist -19.664
rhand -47.5545 42.1252
rfingers 7.12502
rthumb -20.2402 13.1598
lclavicle -2.37051e-014 -8.74653e-015
lhumerus 56.3828 -5.87411 54.332
lradius 92.7285
lwrist 34.727
lhand -49.446 27.4939
lfingers 7.12502
lthumb -22.0573 56.2559
rfemur 13.2088 -10.4383 19.767
rtibia 26.2049
rfoot -29.5452 -23.8845
rtoes -0.936454
lfemur -15.7745 -5.65347 -22.8521
ltibia 29.9738
lfoot 1.58826 6.12973
ltoes 1.24092
